<?xml version="1.0" encoding="UTF-8"?>
<svg id="Calque_2" data-name="Calque 2" xmlns="http://www.w3.org/2000/svg" viewBox="0 0 185.91 135.94">
  <g id="Calque_1-2" data-name="Calque 1">
    <g>
      <path d="M0,33.08h8.85l10.59,35.48c2.31,7.72,3.89,13.98,6.32,21.68h.4c2.43-7.7,4.05-13.95,6.32-21.68l10.52-35.48h8.5l-20.84,65.64h-9.68L0,33.08Z" fill="#8b0036"/>
      <rect x="64.67" y="44.76" width="8.23" height="48.61" fill="#8b0036"/>
      <path d="M89.27,44.76h6.8l.69,7.01h.27c4.63-4.56,9.63-8.21,16.31-8.21,10.24,0,14.84,6.61,14.84,19.01v30.8h-8.23v-29.74c0-9.06-2.74-12.93-9.17-12.93-4.97,0-8.41,2.54-13.29,7.47v35.2h-8.23v-48.61Z" fill="#8b0036"/>
      <path d="M140.36,69.13c0-16.22,10.61-25.57,22.53-25.57s22.53,9.35,22.53,25.57-10.61,25.44-22.53,25.44-22.53-9.35-22.53-25.44ZM176.91,69.13c0-11.14-5.67-18.72-14.03-18.72s-14.03,7.58-14.03,18.72,5.67,18.59,14.03,18.59,14.03-7.45,14.03-18.59Z" fill="#8b0036"/>
      <circle cx="63.01" cy="12.57" r="4.55" fill="#8b0036"/>
      <circle cx="74.11" cy="12.57" r="4.55" fill="#8b0036"/>
      <circle cx="68.8" cy="19.66" r="4.55" fill="#8b0036"/>
      <circle cx="59.75" cy="20.66" r="4.55" fill="#8b0036"/>
      <circle cx="77.83" cy="20.63" r="4.55" fill="#8b0036"/>
      <circle cx="73.59" cy="28.17" r="4.55" fill="#8b0036"/>
      <circle cx="68.89" cy="35.54" r="4.55" fill="#8b0036"/>
      <circle cx="64.01" cy="28.17" r="4.55" fill="#8b0036"/>
      <path d="M68.5,9.27c1.93,0,1.93-3,0-3s-1.93,3,0,3h0Z" fill="#666"/>
      <path d="M72.28,4.59c1.93,0,1.93-3,0-3s-1.93,3,0,3h0Z" fill="#666"/>
      <path d="M70.44,6.89c1.93,0,1.93-3,0-3s-1.93,3,0,3h0Z" fill="#666"/>
      <path d="M58.67.43c.33,1.87,1.86,4.08,4.23,5.78,2.36,1.7,4.94,2.45,6.82,2.17-.33-1.87-1.86-4.08-4.23-5.78S60.55.15,58.67.43Z" fill="#155724" stroke="#006837" stroke-miterlimit="10" stroke-width=".75"/>
      <g>
        <path d="M124.21,55.23h0c10.15,0,18.38,8.24,18.38,18.38v99.99c0,2.57-2.08,4.65-4.65,4.65h-28.09c-2.57,0-4.65-2.08-4.65-4.65v-99.36c0-10.49,8.52-19.01,19.01-19.01Z" transform="translate(7.16 240.65) rotate(-90)" fill="#8b0036" stroke="#8b0036" stroke-linecap="round" stroke-miterlimit="10"/>
        <rect x="45.79" y="92.6" width="11.84" height="48.28" rx="3.55" ry="3.55" transform="translate(-65.03 168.46) rotate(-90)" fill="#8b0036" stroke="#8b0036" stroke-linecap="round" stroke-miterlimit="10"/>
        <rect x="19.9" y="108.63" width="15.58" height="16.48" rx="6.69" ry="6.69" transform="translate(-89.18 144.56) rotate(-90)" fill="#8b0036" stroke="#8b0036" stroke-linecap="round" stroke-miterlimit="10"/>
      </g>
      <g>
        <path d="M68.07,116.58c0-2.57,1.75-4.09,3.99-4.09,1.2,0,2.02.49,2.55.99l-.8.9c-.42-.38-.92-.68-1.7-.68-1.5,0-2.5,1.08-2.5,2.84s.89,2.87,2.58,2.87c.47,0,.93-.12,1.2-.35v-1.69h-1.59v-1.14h2.93v3.46c-.56.53-1.54.93-2.69.93-2.27,0-3.97-1.44-3.97-4.04Z" fill="#ccc"/>
        <path d="M76.61,112.64h5.07v1.17h-3.58v2.01h3.03v1.17h-3.03v2.32h3.71v1.17h-5.2v-7.84Z" fill="#ccc"/>
        <path d="M82.97,119.47l.87-.96c.6.54,1.41.9,2.2.9.95,0,1.47-.4,1.47-1.01,0-.65-.54-.85-1.31-1.15l-1.15-.47c-.83-.32-1.71-.93-1.71-2.08,0-1.25,1.19-2.21,2.83-2.21.98,0,1.94.38,2.6,1l-.77.88c-.54-.42-1.11-.67-1.83-.67-.8,0-1.32.35-1.32.92,0,.62.64.84,1.34,1.11l1.14.44c1,.39,1.71.98,1.71,2.12,0,1.27-1.13,2.33-3.03,2.33-1.14,0-2.24-.42-3.04-1.15Z" fill="#ccc"/>
        <path d="M92.02,113.81h-2.43v-1.17h6.36v1.17h-2.43v6.67h-1.5v-6.67Z" fill="#ccc"/>
        <path d="M97.36,112.64h1.5v7.84h-1.5v-7.84Z" fill="#ccc"/>
        <path d="M100.55,116.53c0-2.54,1.52-4.03,3.72-4.03s3.72,1.5,3.72,4.03-1.52,4.1-3.72,4.1-3.72-1.56-3.72-4.1ZM106.45,116.53c0-1.76-.86-2.83-2.18-2.83s-2.18,1.06-2.18,2.83.86,2.89,2.18,2.89,2.18-1.13,2.18-2.89Z" fill="#ccc"/>
        <path d="M109.69,112.64h1.54l2.62,4.41.87,1.67h.05c-.07-.81-.19-1.8-.19-2.68v-3.41h1.42v7.84h-1.54l-2.62-4.42-.87-1.67h-.05c.07.83.19,1.77.19,2.65v3.44h-1.42v-7.84Z" fill="#ccc"/>
        <path d="M120.72,112.64h2.25c2.58,0,4.11,1.3,4.11,3.89s-1.53,3.95-4.03,3.95h-2.33v-7.84ZM122.87,119.35c1.7,0,2.67-.9,2.67-2.83s-.97-2.76-2.67-2.76h-.66v5.59h.66Z" fill="#ccc"/>
        <path d="M128.78,112.64h5.08v1.17h-3.58v2.01h3.03v1.17h-3.03v2.32h3.71v1.17h-5.2v-7.84Z" fill="#ccc"/>
        <path d="M137.85,116.58c0-2.57,1.73-4.09,3.86-4.09,1.06,0,1.9.47,2.43.99l-.8.9c-.43-.4-.94-.68-1.6-.68-1.37,0-2.36,1.08-2.36,2.84s.91,2.87,2.32,2.87c.75,0,1.33-.32,1.8-.81l.8.87c-.68.74-1.56,1.14-2.66,1.14-2.12,0-3.8-1.44-3.8-4.04Z" fill="#ccc"/>
        <path d="M145.72,112.64h5.08v1.17h-3.58v2.01h3.03v1.17h-3.03v2.32h3.71v1.17h-5.2v-7.84Z" fill="#ccc"/>
        <path d="M152.66,112.64h1.5v6.67h3.5v1.17h-5v-7.84Z" fill="#ccc"/>
        <path d="M159.13,112.64h1.5v6.67h3.5v1.17h-5v-7.84Z" fill="#ccc"/>
        <path d="M165.6,112.64h1.5v7.84h-1.5v-7.84Z" fill="#ccc"/>
        <path d="M169.24,112.64h5.08v1.17h-3.58v2.01h3.03v1.17h-3.03v2.32h3.71v1.17h-5.2v-7.84Z" fill="#ccc"/>
        <path d="M176.18,112.64h2.84c1.75,0,3.11.58,3.11,2.33s-1.35,2.45-3.11,2.45h-1.35v3.07h-1.5v-7.84ZM178.86,116.3c1.16,0,1.78-.45,1.78-1.34s-.63-1.21-1.78-1.21h-1.19v2.55h1.19ZM178.74,117.04l1.08-.83,2.63,4.27h-1.68l-2.03-3.44Z" fill="#ccc"/>
      </g>
    </g>
  </g>
</svg>