<?xml version="1.0" encoding="UTF-8"?>
<svg id="Calque_2" data-name="Calque 2" xmlns="http://www.w3.org/2000/svg" viewBox="0 0 185.91 135.94">
  <g id="Calque_1-2" data-name="Calque 1">
    <g>
      <path d="M0,33.08h8.85l10.59,35.48c2.31,7.72,3.89,13.98,6.32,21.68h.4c2.43-7.7,4.05-13.95,6.32-21.68l10.52-35.48h8.5l-20.84,65.64h-9.68L0,33.08Z" fill="#8b0036"/>
      <rect x="64.67" y="44.76" width="8.23" height="48.61" fill="#8b0036"/>
      <path d="M89.27,44.76h6.8l.69,7.01h.27c4.63-4.56,9.63-8.21,16.31-8.21,10.24,0,14.84,6.61,14.84,19.01v30.8h-8.23v-29.74c0-9.06-2.74-12.93-9.17-12.93-4.97,0-8.41,2.54-13.29,7.47v35.2h-8.23v-48.61Z" fill="#8b0036"/>
      <path d="M140.36,69.13c0-16.22,10.61-25.57,22.53-25.57s22.53,9.35,22.53,25.57-10.61,25.44-22.53,25.44-22.53-9.35-22.53-25.44ZM176.91,69.13c0-11.14-5.67-18.72-14.03-18.72s-14.03,7.58-14.03,18.72,5.67,18.59,14.03,18.59,14.03-7.45,14.03-18.59Z" fill="#8b0036"/>
      <circle cx="63.01" cy="12.57" r="4.55" fill="#8b0036"/>
      <circle cx="74.11" cy="12.57" r="4.55" fill="#8b0036"/>
      <circle cx="68.8" cy="19.66" r="4.55" fill="#8b0036"/>
      <circle cx="59.75" cy="20.66" r="4.55" fill="#8b0036"/>
      <circle cx="77.83" cy="20.63" r="4.55" fill="#8b0036"/>
      <circle cx="73.59" cy="28.17" r="4.55" fill="#8b0036"/>
      <circle cx="68.89" cy="35.54" r="4.55" fill="#8b0036"/>
      <circle cx="64.01" cy="28.17" r="4.55" fill="#8b0036"/>
      <path d="M68.5,9.27c1.93,0,1.93-3,0-3s-1.93,3,0,3h0Z" fill="#666"/>
      <path d="M72.28,4.59c1.93,0,1.93-3,0-3s-1.93,3,0,3h0Z" fill="#666"/>
      <path d="M70.44,6.89c1.93,0,1.93-3,0-3s-1.93,3,0,3h0Z" fill="#666"/>
      <path d="M58.67.43c.33,1.87,1.86,4.08,4.23,5.78,2.36,1.7,4.94,2.45,6.82,2.17-.33-1.87-1.86-4.08-4.23-5.78S60.55.15,58.67.43Z" fill="#155724" stroke="#006837" stroke-miterlimit="10" stroke-width=".75"/>
      <g>
        <path d="M124.21,55.23h0c10.15,0,18.38,8.24,18.38,18.38v99.99c0,2.57-2.08,4.65-4.65,4.65h-28.09c-2.57,0-4.65-2.08-4.65-4.65v-99.36c0-10.49,8.52-19.01,19.01-19.01Z" transform="translate(7.16 240.65) rotate(-90)" fill="#8b0036" stroke="#8b0036" stroke-linecap="round" stroke-miterlimit="10"/>
        <rect x="45.79" y="92.6" width="11.84" height="48.28" rx="3.55" ry="3.55" transform="translate(-65.03 168.46) rotate(-90)" fill="#8b0036" stroke="#8b0036" stroke-linecap="round" stroke-miterlimit="10"/>
        <rect x="19.9" y="108.63" width="15.58" height="16.48" rx="6.69" ry="6.69" transform="translate(-89.18 144.56) rotate(-90)" fill="#8b0036" stroke="#8b0036" stroke-linecap="round" stroke-miterlimit="10"/>
      </g>
      <g>
        <path d="M70.11,115.55c0-2.54,1.64-4.09,3.88-4.09,1.17,0,1.95.5,2.44.97l-.59.65c-.43-.41-.97-.74-1.82-.74-1.71,0-2.8,1.22-2.8,3.18s1.01,3.22,2.81,3.22c.61,0,1.19-.17,1.52-.46v-2.05h-1.79v-.83h2.77v3.31c-.54.53-1.47.91-2.61.91-2.23,0-3.82-1.52-3.82-4.07Z" fill="#ccc"/>
        <path d="M78.55,111.61h4.88v.85h-3.8v2.47h3.21v.85h-3.21v2.86h3.93v.85h-5.01v-7.87Z" fill="#ccc"/>
        <path d="M84.74,118.46l.64-.69c.61.59,1.46.98,2.33.98,1.11,0,1.77-.51,1.77-1.28,0-.8-.61-1.06-1.41-1.38l-1.21-.5c-.79-.31-1.71-.87-1.71-2.03s1.13-2.09,2.66-2.09c1,0,1.9.4,2.49.98l-.57.64c-.52-.46-1.14-.74-1.92-.74-.95,0-1.58.45-1.58,1.15,0,.76.74,1.04,1.4,1.3l1.21.49c.98.39,1.74.93,1.74,2.1,0,1.24-1.1,2.24-2.88,2.24-1.19,0-2.22-.45-2.96-1.17Z" fill="#ccc"/>
        <path d="M93.74,112.46h-2.56v-.85h6.2v.85h-2.56v7.02h-1.08v-7.02Z" fill="#ccc"/>
        <path d="M98.89,111.61h1.08v7.87h-1.08v-7.87Z" fill="#ccc"/>
        <path d="M101.79,115.52c0-2.52,1.49-4.05,3.62-4.05s3.62,1.53,3.62,4.05-1.49,4.11-3.62,4.11-3.62-1.59-3.62-4.11ZM107.91,115.52c0-1.96-.99-3.17-2.5-3.17s-2.5,1.21-2.5,3.17.99,3.23,2.5,3.23,2.5-1.27,2.5-3.23Z" fill="#ccc"/>
        <path d="M110.84,111.61h1.11l3.06,4.95.91,1.63h.05c-.05-.79-.14-1.68-.14-2.5v-4.07h1.02v7.87h-1.11l-3.06-4.95-.91-1.62h-.05c.05.8.14,1.64.14,2.46v4.12h-1.02v-7.87Z" fill="#ccc"/>
        <path d="M121.76,111.61h2.12c2.6,0,4,1.41,4,3.91s-1.4,3.96-3.95,3.96h-2.17v-7.87ZM123.8,118.66c1.98,0,2.96-1.15,2.96-3.14s-.99-3.09-2.96-3.09h-.96v6.23h.96Z" fill="#ccc"/>
        <path d="M129.69,111.61h4.88v.85h-3.8v2.47h3.21v.85h-3.21v2.86h3.93v.85h-5.01v-7.87Z" fill="#ccc"/>
        <path d="M138.57,115.55c0-2.54,1.61-4.09,3.75-4.09,1.03,0,1.83.46,2.33.97l-.59.65c-.45-.44-1-.74-1.72-.74-1.6,0-2.66,1.22-2.66,3.18s1.02,3.22,2.62,3.22c.81,0,1.42-.33,1.96-.88l.59.63c-.67.72-1.5,1.14-2.6,1.14-2.11,0-3.69-1.52-3.69-4.07Z" fill="#ccc"/>
        <path d="M146.42,111.61h4.88v.85h-3.8v2.47h3.21v.85h-3.21v2.86h3.93v.85h-5.01v-7.87Z" fill="#ccc"/>
        <path d="M153.22,111.61h1.08v7.02h3.69v.85h-4.77v-7.87Z" fill="#ccc"/>
        <path d="M159.49,111.61h1.08v7.02h3.69v.85h-4.77v-7.87Z" fill="#ccc"/>
        <path d="M165.75,111.61h1.08v7.87h-1.08v-7.87Z" fill="#ccc"/>
        <path d="M169.14,111.61h4.88v.85h-3.8v2.47h3.21v.85h-3.21v2.86h3.93v.85h-5.01v-7.87Z" fill="#ccc"/>
        <path d="M175.94,111.61h2.65c1.72,0,2.96.58,2.96,2.22s-1.24,2.33-2.96,2.33h-1.57v3.33h-1.08v-7.87ZM178.43,115.34c1.32,0,2.04-.5,2.04-1.52s-.72-1.4-2.04-1.4h-1.42v2.92h1.42ZM178.38,115.88l.84-.52,2.58,4.12h-1.22l-2.21-3.6Z" fill="#ccc"/>
      </g>
    </g>
  </g>
</svg>